<mxfile host="65bd71144e">
    <diagram id="PHjTdPl2fH39g4z5Hldb" name="Page-1">
        <mxGraphModel dx="3246" dy="897" grid="1" gridSize="10" guides="1" tooltips="1" connect="1" arrows="1" fold="1" page="1" pageScale="1" pageWidth="850" pageHeight="1100" math="0" shadow="0">
            <root>
                <mxCell id="0"/>
                <mxCell id="1" parent="0"/>
                <mxCell id="dAHod_WL6a9GCV79f9y0-3" value="" style="strokeWidth=1;shadow=0;dashed=0;align=center;html=1;shape=mxgraph.mockup.containers.browserWindow;rSize=0;strokeColor=#666666;strokeColor2=#008cff;strokeColor3=#c4c4c4;mainText=,;recursiveResize=0;" parent="1" vertex="1">
                    <mxGeometry x="-1600" y="60" width="800" height="750" as="geometry"/>
                </mxCell>
                <mxCell id="dAHod_WL6a9GCV79f9y0-70" value="" style="strokeWidth=1;shadow=0;dashed=0;align=center;html=1;shape=mxgraph.mockup.forms.rrect;rSize=5;strokeColor=#999999;fillColor=#ffffff;" parent="dAHod_WL6a9GCV79f9y0-3" vertex="1">
                    <mxGeometry x="5" y="110" width="787.81" height="630" as="geometry"/>
                </mxCell>
                <mxCell id="dAHod_WL6a9GCV79f9y0-71" value="October 2014" style="strokeWidth=1;shadow=0;dashed=0;align=center;html=1;shape=mxgraph.mockup.forms.anchor;fontColor=#999999;" parent="dAHod_WL6a9GCV79f9y0-70" vertex="1">
                    <mxGeometry x="-91.0025" y="59.599999999999994" width="490.625" height="72" as="geometry"/>
                </mxCell>
                <mxCell id="dAHod_WL6a9GCV79f9y0-72" value="&lt;" style="strokeWidth=1;shadow=0;dashed=0;align=center;html=1;shape=mxgraph.mockup.forms.rrect;rSize=4;strokeColor=#999999;fontColor=#008cff;fontSize=19;fontStyle=1;" parent="dAHod_WL6a9GCV79f9y0-70" vertex="1">
                    <mxGeometry x="49.06" y="80" width="31.91" height="31.2" as="geometry"/>
                </mxCell>
                <mxCell id="dAHod_WL6a9GCV79f9y0-73" value="&gt;" style="strokeWidth=1;shadow=0;dashed=0;align=center;html=1;shape=mxgraph.mockup.forms.rrect;rSize=4;strokeColor=#999999;fontColor=#008cff;fontSize=19;fontStyle=1;" parent="dAHod_WL6a9GCV79f9y0-70" vertex="1">
                    <mxGeometry x="84.67000000000007" y="80" width="26.91" height="31.2" as="geometry"/>
                </mxCell>
                <mxCell id="dAHod_WL6a9GCV79f9y0-74" value="Mo" style="strokeWidth=1;shadow=0;dashed=0;align=center;html=1;shape=mxgraph.mockup.forms.anchor;fontColor=#999999;" parent="dAHod_WL6a9GCV79f9y0-70" vertex="1">
                    <mxGeometry x="49.0625" y="100.8" width="98.125" height="72" as="geometry"/>
                </mxCell>
                <mxCell id="dAHod_WL6a9GCV79f9y0-75" value="Tu" style="strokeWidth=1;shadow=0;dashed=0;align=center;html=1;shape=mxgraph.mockup.forms.anchor;fontColor=#999999;" parent="dAHod_WL6a9GCV79f9y0-70" vertex="1">
                    <mxGeometry x="147.1875" y="100.8" width="98.125" height="72" as="geometry"/>
                </mxCell>
                <mxCell id="dAHod_WL6a9GCV79f9y0-76" value="We" style="strokeWidth=1;shadow=0;dashed=0;align=center;html=1;shape=mxgraph.mockup.forms.anchor;fontColor=#999999;" parent="dAHod_WL6a9GCV79f9y0-70" vertex="1">
                    <mxGeometry x="245.3125" y="100.8" width="98.125" height="72" as="geometry"/>
                </mxCell>
                <mxCell id="dAHod_WL6a9GCV79f9y0-77" value="Th" style="strokeWidth=1;shadow=0;dashed=0;align=center;html=1;shape=mxgraph.mockup.forms.anchor;fontColor=#999999;" parent="dAHod_WL6a9GCV79f9y0-70" vertex="1">
                    <mxGeometry x="343.4375" y="100.8" width="98.125" height="72" as="geometry"/>
                </mxCell>
                <mxCell id="dAHod_WL6a9GCV79f9y0-78" value="Fr" style="strokeWidth=1;shadow=0;dashed=0;align=center;html=1;shape=mxgraph.mockup.forms.anchor;fontColor=#999999;" parent="dAHod_WL6a9GCV79f9y0-70" vertex="1">
                    <mxGeometry x="441.5625" y="100.8" width="98.125" height="72" as="geometry"/>
                </mxCell>
                <mxCell id="dAHod_WL6a9GCV79f9y0-79" value="Sa" style="strokeWidth=1;shadow=0;dashed=0;align=center;html=1;shape=mxgraph.mockup.forms.anchor;fontColor=#999999;" parent="dAHod_WL6a9GCV79f9y0-70" vertex="1">
                    <mxGeometry x="539.6875" y="100.8" width="98.125" height="72" as="geometry"/>
                </mxCell>
                <mxCell id="dAHod_WL6a9GCV79f9y0-80" value="Su" style="strokeWidth=1;shadow=0;dashed=0;align=center;html=1;shape=mxgraph.mockup.forms.anchor;fontColor=#999999;" parent="dAHod_WL6a9GCV79f9y0-70" vertex="1">
                    <mxGeometry x="637.8125" y="100.8" width="98.125" height="72" as="geometry"/>
                </mxCell>
                <mxCell id="dAHod_WL6a9GCV79f9y0-81" value="1" style="strokeWidth=1;shadow=0;dashed=0;align=center;html=1;shape=mxgraph.mockup.forms.rrect;rSize=0;strokeColor=#999999;fontColor=#999999;" parent="dAHod_WL6a9GCV79f9y0-70" vertex="1">
                    <mxGeometry x="49.0625" y="172.79999999999998" width="98.125" height="72" as="geometry"/>
                </mxCell>
                <mxCell id="dAHod_WL6a9GCV79f9y0-82" value="2" style="strokeWidth=1;shadow=0;dashed=0;align=center;html=1;shape=mxgraph.mockup.forms.rrect;rSize=0;strokeColor=#999999;fontColor=#999999;" parent="dAHod_WL6a9GCV79f9y0-70" vertex="1">
                    <mxGeometry x="147.1875" y="172.79999999999998" width="98.125" height="72" as="geometry"/>
                </mxCell>
                <mxCell id="dAHod_WL6a9GCV79f9y0-83" value="3" style="strokeWidth=1;shadow=0;dashed=0;align=center;html=1;shape=mxgraph.mockup.forms.rrect;rSize=0;strokeColor=#999999;fontColor=#999999;" parent="dAHod_WL6a9GCV79f9y0-70" vertex="1">
                    <mxGeometry x="245.3125" y="172.79999999999998" width="98.125" height="72" as="geometry"/>
                </mxCell>
                <mxCell id="dAHod_WL6a9GCV79f9y0-84" value="4" style="strokeWidth=1;shadow=0;dashed=0;align=center;html=1;shape=mxgraph.mockup.forms.rrect;rSize=0;strokeColor=#999999;fontColor=#999999;" parent="dAHod_WL6a9GCV79f9y0-70" vertex="1">
                    <mxGeometry x="343.4375" y="172.79999999999998" width="98.125" height="72" as="geometry"/>
                </mxCell>
                <mxCell id="dAHod_WL6a9GCV79f9y0-85" value="5" style="strokeWidth=1;shadow=0;dashed=0;align=center;html=1;shape=mxgraph.mockup.forms.rrect;rSize=0;strokeColor=#999999;fontColor=#999999;" parent="dAHod_WL6a9GCV79f9y0-70" vertex="1">
                    <mxGeometry x="441.5625" y="172.79999999999998" width="98.125" height="72" as="geometry"/>
                </mxCell>
                <mxCell id="dAHod_WL6a9GCV79f9y0-86" value="6" style="strokeWidth=1;shadow=0;dashed=0;align=center;html=1;shape=mxgraph.mockup.forms.rrect;rSize=0;strokeColor=#999999;fontColor=#999999;" parent="dAHod_WL6a9GCV79f9y0-70" vertex="1">
                    <mxGeometry x="539.6875" y="172.79999999999998" width="98.125" height="72" as="geometry"/>
                </mxCell>
                <mxCell id="dAHod_WL6a9GCV79f9y0-87" value="7" style="strokeWidth=1;shadow=0;dashed=0;align=center;html=1;shape=mxgraph.mockup.forms.rrect;rSize=0;strokeColor=#999999;fontColor=#999999;" parent="dAHod_WL6a9GCV79f9y0-70" vertex="1">
                    <mxGeometry x="637.8125" y="172.79999999999998" width="98.125" height="72" as="geometry"/>
                </mxCell>
                <mxCell id="dAHod_WL6a9GCV79f9y0-88" value="8" style="strokeWidth=1;shadow=0;dashed=0;align=center;html=1;shape=mxgraph.mockup.forms.rrect;rSize=0;strokeColor=#999999;fontColor=#999999;" parent="dAHod_WL6a9GCV79f9y0-70" vertex="1">
                    <mxGeometry x="49.0625" y="244.79999999999995" width="98.125" height="72" as="geometry"/>
                </mxCell>
                <mxCell id="dAHod_WL6a9GCV79f9y0-89" value="9" style="strokeWidth=1;shadow=0;dashed=0;align=center;html=1;shape=mxgraph.mockup.forms.rrect;rSize=0;strokeColor=#999999;fontColor=#999999;" parent="dAHod_WL6a9GCV79f9y0-70" vertex="1">
                    <mxGeometry x="147.1875" y="244.79999999999995" width="98.125" height="72" as="geometry"/>
                </mxCell>
                <mxCell id="dAHod_WL6a9GCV79f9y0-90" value="10" style="strokeWidth=1;shadow=0;dashed=0;align=center;html=1;shape=mxgraph.mockup.forms.rrect;rSize=0;strokeColor=#999999;fontColor=#999999;" parent="dAHod_WL6a9GCV79f9y0-70" vertex="1">
                    <mxGeometry x="245.3125" y="244.79999999999995" width="98.125" height="72" as="geometry"/>
                </mxCell>
                <mxCell id="dAHod_WL6a9GCV79f9y0-91" value="11" style="strokeWidth=1;shadow=0;dashed=0;align=center;html=1;shape=mxgraph.mockup.forms.rrect;rSize=0;strokeColor=#999999;fontColor=#999999;" parent="dAHod_WL6a9GCV79f9y0-70" vertex="1">
                    <mxGeometry x="343.4375" y="244.79999999999995" width="98.125" height="72" as="geometry"/>
                </mxCell>
                <mxCell id="dAHod_WL6a9GCV79f9y0-92" value="12" style="strokeWidth=1;shadow=0;dashed=0;align=center;html=1;shape=mxgraph.mockup.forms.rrect;rSize=0;strokeColor=#999999;fontColor=#999999;" parent="dAHod_WL6a9GCV79f9y0-70" vertex="1">
                    <mxGeometry x="441.5625" y="244.79999999999995" width="98.125" height="72" as="geometry"/>
                </mxCell>
                <mxCell id="dAHod_WL6a9GCV79f9y0-93" value="13" style="strokeWidth=1;shadow=0;dashed=0;align=center;html=1;shape=mxgraph.mockup.forms.rrect;rSize=0;strokeColor=#999999;fontColor=#999999;" parent="dAHod_WL6a9GCV79f9y0-70" vertex="1">
                    <mxGeometry x="539.6875" y="244.79999999999995" width="98.125" height="72" as="geometry"/>
                </mxCell>
                <mxCell id="dAHod_WL6a9GCV79f9y0-94" value="14" style="strokeWidth=1;shadow=0;dashed=0;align=center;html=1;shape=mxgraph.mockup.forms.rrect;rSize=0;strokeColor=#999999;fontColor=#999999;" parent="dAHod_WL6a9GCV79f9y0-70" vertex="1">
                    <mxGeometry x="637.8125" y="244.79999999999995" width="98.125" height="72" as="geometry"/>
                </mxCell>
                <mxCell id="dAHod_WL6a9GCV79f9y0-95" value="15" style="strokeWidth=1;shadow=0;dashed=0;align=center;html=1;shape=mxgraph.mockup.forms.rrect;rSize=0;strokeColor=#999999;fontColor=#999999;" parent="dAHod_WL6a9GCV79f9y0-70" vertex="1">
                    <mxGeometry x="49.0625" y="316.8" width="98.125" height="72" as="geometry"/>
                </mxCell>
                <mxCell id="dAHod_WL6a9GCV79f9y0-96" value="16" style="strokeWidth=1;shadow=0;dashed=0;align=center;html=1;shape=mxgraph.mockup.forms.rrect;rSize=0;strokeColor=#999999;fontColor=#999999;" parent="dAHod_WL6a9GCV79f9y0-70" vertex="1">
                    <mxGeometry x="147.1875" y="316.8" width="98.125" height="72" as="geometry"/>
                </mxCell>
                <mxCell id="dAHod_WL6a9GCV79f9y0-97" value="17" style="strokeWidth=1;shadow=0;dashed=0;align=center;html=1;shape=mxgraph.mockup.forms.rrect;rSize=0;strokeColor=#999999;fontColor=#999999;" parent="dAHod_WL6a9GCV79f9y0-70" vertex="1">
                    <mxGeometry x="245.3125" y="316.8" width="98.125" height="72" as="geometry"/>
                </mxCell>
                <mxCell id="dAHod_WL6a9GCV79f9y0-98" value="18" style="strokeWidth=1;shadow=0;dashed=0;align=center;html=1;shape=mxgraph.mockup.forms.rrect;rSize=0;strokeColor=#999999;fontColor=#999999;" parent="dAHod_WL6a9GCV79f9y0-70" vertex="1">
                    <mxGeometry x="343.4375" y="316.8" width="98.125" height="72" as="geometry"/>
                </mxCell>
                <mxCell id="dAHod_WL6a9GCV79f9y0-99" value="19" style="strokeWidth=1;shadow=0;dashed=0;align=center;html=1;shape=mxgraph.mockup.forms.rrect;rSize=0;strokeColor=#999999;fontColor=#999999;" parent="dAHod_WL6a9GCV79f9y0-70" vertex="1">
                    <mxGeometry x="441.5625" y="316.8" width="98.125" height="72" as="geometry"/>
                </mxCell>
                <mxCell id="dAHod_WL6a9GCV79f9y0-100" value="20" style="strokeWidth=1;shadow=0;dashed=0;align=center;html=1;shape=mxgraph.mockup.forms.rrect;rSize=0;strokeColor=#999999;fontColor=#999999;" parent="dAHod_WL6a9GCV79f9y0-70" vertex="1">
                    <mxGeometry x="539.6875" y="316.8" width="98.125" height="72" as="geometry"/>
                </mxCell>
                <mxCell id="dAHod_WL6a9GCV79f9y0-101" value="21" style="strokeWidth=1;shadow=0;dashed=0;align=center;html=1;shape=mxgraph.mockup.forms.rrect;rSize=0;strokeColor=#999999;fontColor=#999999;" parent="dAHod_WL6a9GCV79f9y0-70" vertex="1">
                    <mxGeometry x="637.8125" y="316.8" width="98.125" height="72" as="geometry"/>
                </mxCell>
                <mxCell id="dAHod_WL6a9GCV79f9y0-102" value="22" style="strokeWidth=1;shadow=0;dashed=0;align=center;html=1;shape=mxgraph.mockup.forms.rrect;rSize=0;strokeColor=#999999;fontColor=#999999;" parent="dAHod_WL6a9GCV79f9y0-70" vertex="1">
                    <mxGeometry x="49.0625" y="388.8" width="98.125" height="72" as="geometry"/>
                </mxCell>
                <mxCell id="dAHod_WL6a9GCV79f9y0-103" value="23" style="strokeWidth=1;shadow=0;dashed=0;align=center;html=1;shape=mxgraph.mockup.forms.rrect;rSize=0;strokeColor=#999999;fontColor=#999999;" parent="dAHod_WL6a9GCV79f9y0-70" vertex="1">
                    <mxGeometry x="147.1875" y="388.8" width="98.125" height="72" as="geometry"/>
                </mxCell>
                <mxCell id="dAHod_WL6a9GCV79f9y0-104" value="25" style="strokeWidth=1;shadow=0;dashed=0;align=center;html=1;shape=mxgraph.mockup.forms.rrect;rSize=0;strokeColor=#999999;fontColor=#999999;" parent="dAHod_WL6a9GCV79f9y0-70" vertex="1">
                    <mxGeometry x="343.4375" y="388.8" width="98.125" height="72" as="geometry"/>
                </mxCell>
                <mxCell id="dAHod_WL6a9GCV79f9y0-105" value="26" style="strokeWidth=1;shadow=0;dashed=0;align=center;html=1;shape=mxgraph.mockup.forms.rrect;rSize=0;strokeColor=#999999;fontColor=#999999;" parent="dAHod_WL6a9GCV79f9y0-70" vertex="1">
                    <mxGeometry x="441.5625" y="388.8" width="98.125" height="72" as="geometry"/>
                </mxCell>
                <mxCell id="dAHod_WL6a9GCV79f9y0-106" value="27" style="strokeWidth=1;shadow=0;dashed=0;align=center;html=1;shape=mxgraph.mockup.forms.rrect;rSize=0;strokeColor=#999999;fontColor=#999999;" parent="dAHod_WL6a9GCV79f9y0-70" vertex="1">
                    <mxGeometry x="539.6875" y="388.8" width="98.125" height="72" as="geometry"/>
                </mxCell>
                <mxCell id="dAHod_WL6a9GCV79f9y0-107" value="28" style="strokeWidth=1;shadow=0;dashed=0;align=center;html=1;shape=mxgraph.mockup.forms.rrect;rSize=0;strokeColor=#999999;fontColor=#999999;" parent="dAHod_WL6a9GCV79f9y0-70" vertex="1">
                    <mxGeometry x="637.8125" y="388.8" width="98.125" height="72" as="geometry"/>
                </mxCell>
                <mxCell id="dAHod_WL6a9GCV79f9y0-108" value="29" style="strokeWidth=1;shadow=0;dashed=0;align=center;html=1;shape=mxgraph.mockup.forms.rrect;rSize=0;strokeColor=#999999;fontColor=#999999;" parent="dAHod_WL6a9GCV79f9y0-70" vertex="1">
                    <mxGeometry x="49.0625" y="460.79999999999995" width="98.125" height="72" as="geometry"/>
                </mxCell>
                <mxCell id="dAHod_WL6a9GCV79f9y0-109" value="30" style="strokeWidth=1;shadow=0;dashed=0;align=center;html=1;shape=mxgraph.mockup.forms.rrect;rSize=0;strokeColor=#999999;fontColor=#999999;" parent="dAHod_WL6a9GCV79f9y0-70" vertex="1">
                    <mxGeometry x="147.1875" y="460.79999999999995" width="98.125" height="72" as="geometry"/>
                </mxCell>
                <mxCell id="dAHod_WL6a9GCV79f9y0-110" value="31" style="strokeWidth=1;shadow=0;dashed=0;align=center;html=1;shape=mxgraph.mockup.forms.rrect;rSize=0;strokeColor=#999999;fontColor=#999999;" parent="dAHod_WL6a9GCV79f9y0-70" vertex="1">
                    <mxGeometry x="245.3125" y="460.79999999999995" width="98.125" height="72" as="geometry"/>
                </mxCell>
                <mxCell id="dAHod_WL6a9GCV79f9y0-111" value="1" style="strokeWidth=1;shadow=0;dashed=0;align=center;html=1;shape=mxgraph.mockup.forms.rrect;rSize=0;strokeColor=#999999;fontColor=#999999;fillColor=#ddeeff;" parent="dAHod_WL6a9GCV79f9y0-70" vertex="1">
                    <mxGeometry x="343.4375" y="460.79999999999995" width="98.125" height="72" as="geometry"/>
                </mxCell>
                <mxCell id="dAHod_WL6a9GCV79f9y0-112" value="2" style="strokeWidth=1;shadow=0;dashed=0;align=center;html=1;shape=mxgraph.mockup.forms.rrect;rSize=0;strokeColor=#999999;fontColor=#999999;fillColor=#ddeeff;" parent="dAHod_WL6a9GCV79f9y0-70" vertex="1">
                    <mxGeometry x="441.5625" y="460.79999999999995" width="98.125" height="72" as="geometry"/>
                </mxCell>
                <mxCell id="dAHod_WL6a9GCV79f9y0-113" value="3" style="strokeWidth=1;shadow=0;dashed=0;align=center;html=1;shape=mxgraph.mockup.forms.rrect;rSize=0;strokeColor=#999999;fontColor=#999999;fillColor=#ddeeff;" parent="dAHod_WL6a9GCV79f9y0-70" vertex="1">
                    <mxGeometry x="539.6875" y="460.79999999999995" width="98.125" height="72" as="geometry"/>
                </mxCell>
                <mxCell id="dAHod_WL6a9GCV79f9y0-114" value="4" style="strokeWidth=1;shadow=0;dashed=0;align=center;html=1;shape=mxgraph.mockup.forms.rrect;rSize=0;strokeColor=#999999;fontColor=#999999;fillColor=#ddeeff;" parent="dAHod_WL6a9GCV79f9y0-70" vertex="1">
                    <mxGeometry x="637.8125" y="460.79999999999995" width="98.125" height="72" as="geometry"/>
                </mxCell>
                <mxCell id="dAHod_WL6a9GCV79f9y0-115" value="5" style="strokeWidth=1;shadow=0;dashed=0;align=center;html=1;shape=mxgraph.mockup.forms.rrect;rSize=0;strokeColor=#999999;fontColor=#999999;fillColor=#ddeeff;" parent="dAHod_WL6a9GCV79f9y0-70" vertex="1">
                    <mxGeometry x="49.0625" y="532.8" width="98.125" height="72" as="geometry"/>
                </mxCell>
                <mxCell id="dAHod_WL6a9GCV79f9y0-116" value="6" style="strokeWidth=1;shadow=0;dashed=0;align=center;html=1;shape=mxgraph.mockup.forms.rrect;rSize=0;strokeColor=#999999;fontColor=#999999;fillColor=#ddeeff;" parent="dAHod_WL6a9GCV79f9y0-70" vertex="1">
                    <mxGeometry x="147.1875" y="532.8" width="98.125" height="72" as="geometry"/>
                </mxCell>
                <mxCell id="dAHod_WL6a9GCV79f9y0-117" value="7" style="strokeWidth=1;shadow=0;dashed=0;align=center;html=1;shape=mxgraph.mockup.forms.rrect;rSize=0;strokeColor=#999999;fontColor=#999999;fillColor=#ddeeff;" parent="dAHod_WL6a9GCV79f9y0-70" vertex="1">
                    <mxGeometry x="245.3125" y="532.8" width="98.125" height="72" as="geometry"/>
                </mxCell>
                <mxCell id="dAHod_WL6a9GCV79f9y0-118" value="8" style="strokeWidth=1;shadow=0;dashed=0;align=center;html=1;shape=mxgraph.mockup.forms.rrect;rSize=0;strokeColor=#999999;fontColor=#999999;fillColor=#ddeeff;" parent="dAHod_WL6a9GCV79f9y0-70" vertex="1">
                    <mxGeometry x="343.4375" y="532.8" width="98.125" height="72" as="geometry"/>
                </mxCell>
                <mxCell id="dAHod_WL6a9GCV79f9y0-119" value="9" style="strokeWidth=1;shadow=0;dashed=0;align=center;html=1;shape=mxgraph.mockup.forms.rrect;rSize=0;strokeColor=#999999;fontColor=#999999;fillColor=#ddeeff;" parent="dAHod_WL6a9GCV79f9y0-70" vertex="1">
                    <mxGeometry x="441.5625" y="532.8" width="98.125" height="72" as="geometry"/>
                </mxCell>
                <mxCell id="dAHod_WL6a9GCV79f9y0-120" value="10" style="strokeWidth=1;shadow=0;dashed=0;align=center;html=1;shape=mxgraph.mockup.forms.rrect;rSize=0;strokeColor=#999999;fontColor=#999999;fillColor=#ddeeff;" parent="dAHod_WL6a9GCV79f9y0-70" vertex="1">
                    <mxGeometry x="539.6875" y="532.8" width="98.125" height="72" as="geometry"/>
                </mxCell>
                <mxCell id="dAHod_WL6a9GCV79f9y0-121" value="11" style="strokeWidth=1;shadow=0;dashed=0;align=center;html=1;shape=mxgraph.mockup.forms.rrect;rSize=0;strokeColor=#999999;fontColor=#999999;fillColor=#ddeeff;" parent="dAHod_WL6a9GCV79f9y0-70" vertex="1">
                    <mxGeometry x="637.8125" y="532.8" width="98.125" height="72" as="geometry"/>
                </mxCell>
                <mxCell id="dAHod_WL6a9GCV79f9y0-122" value="24" style="strokeWidth=1;shadow=0;dashed=0;align=center;html=1;shape=mxgraph.mockup.forms.rrect;rSize=0;strokeColor=#ff0000;fontColor=#ffffff;strokeWidth=2;fillColor=#008cff;" parent="dAHod_WL6a9GCV79f9y0-70" vertex="1">
                    <mxGeometry x="245.3125" y="388.8" width="98.125" height="72" as="geometry"/>
                </mxCell>
                <mxCell id="dAHod_WL6a9GCV79f9y0-69" value="Automatic Mode:" style="text;html=1;strokeColor=none;fillColor=none;align=center;verticalAlign=middle;whiteSpace=wrap;rounded=0;" parent="dAHod_WL6a9GCV79f9y0-70" vertex="1">
                    <mxGeometry x="205" y="80" width="100" height="30" as="geometry"/>
                </mxCell>
                <mxCell id="dAHod_WL6a9GCV79f9y0-60" value="ON" style="strokeWidth=1;shadow=0;dashed=0;align=center;html=1;shape=mxgraph.mockup.buttons.onOffButton;gradientColor=none;strokeColor=#999999;buttonState=on;fillColor2=#008cff;fontColor=#ffffff;fontSize=17;mainText=;spacingRight=40;fontStyle=1;" parent="dAHod_WL6a9GCV79f9y0-70" vertex="1">
                    <mxGeometry x="315" y="85" width="35" height="20" as="geometry"/>
                </mxCell>
                <mxCell id="dAHod_WL6a9GCV79f9y0-123" value="+" style="strokeWidth=1;shadow=0;dashed=0;align=center;html=1;shape=mxgraph.mockup.buttons.button;strokeColor=#666666;fontColor=#ffffff;mainText=;buttonStyle=round;fontSize=17;fontStyle=1;fillColor=#008cff;whiteSpace=wrap;" parent="dAHod_WL6a9GCV79f9y0-70" vertex="1">
                    <mxGeometry x="725" y="570" width="47.81" height="50" as="geometry"/>
                </mxCell>
                <mxCell id="4MM3qSH1iIxZpQqLXLsO-1" value="&lt;font style=&quot;font-size: 32px;&quot;&gt;Schedulia&lt;/font&gt;" style="text;html=1;strokeColor=none;fillColor=none;align=center;verticalAlign=middle;whiteSpace=wrap;rounded=0;" parent="dAHod_WL6a9GCV79f9y0-70" vertex="1">
                    <mxGeometry y="10" width="219.03" height="60" as="geometry"/>
                </mxCell>
                <mxCell id="4MM3qSH1iIxZpQqLXLsO-2" value="" style="verticalLabelPosition=bottom;shadow=0;dashed=0;align=center;html=1;verticalAlign=top;strokeWidth=1;shape=mxgraph.mockup.containers.userMale;strokeColor=#666666;strokeColor2=#008cff;fontSize=32;" parent="dAHod_WL6a9GCV79f9y0-70" vertex="1">
                    <mxGeometry x="732.41" y="25.5" width="33" height="29" as="geometry"/>
                </mxCell>
                <mxCell id="4MM3qSH1iIxZpQqLXLsO-7" value="" style="strokeWidth=1;shadow=0;dashed=0;align=center;html=1;shape=mxgraph.mockup.containers.rrect;rSize=0;strokeColor=#666666;fontSize=32;" parent="dAHod_WL6a9GCV79f9y0-70" vertex="1">
                    <mxGeometry x="445" y="532.8" width="300" height="50" as="geometry"/>
                </mxCell>
                <mxCell id="4MM3qSH1iIxZpQqLXLsO-8" value="Add New Media" style="strokeColor=inherit;fillColor=inherit;gradientColor=inherit;strokeWidth=1;shadow=0;dashed=0;align=center;html=1;shape=mxgraph.mockup.containers.rrect;rSize=0;fontSize=17;fontColor=#666666;fontStyle=1;resizeWidth=1;" parent="4MM3qSH1iIxZpQqLXLsO-7" vertex="1">
                    <mxGeometry width="300" height="26" relative="1" as="geometry"/>
                </mxCell>
                <mxCell id="4MM3qSH1iIxZpQqLXLsO-9" value="Select Media From Suggestions" style="strokeColor=inherit;fillColor=inherit;gradientColor=inherit;strokeWidth=1;shadow=0;dashed=0;align=center;html=1;shape=mxgraph.mockup.containers.rrect;rSize=0;fontSize=17;fontColor=#666666;fontStyle=1;resizeWidth=1;" parent="4MM3qSH1iIxZpQqLXLsO-7" vertex="1">
                    <mxGeometry width="300" height="26" relative="1" as="geometry">
                        <mxPoint y="26" as="offset"/>
                    </mxGeometry>
                </mxCell>
                <mxCell id="4MM3qSH1iIxZpQqLXLsO-12" value="Export" style="strokeWidth=1;shadow=0;dashed=0;align=center;html=1;shape=mxgraph.mockup.buttons.button;strokeColor=#666666;fontColor=#ffffff;mainText=;buttonStyle=round;fontSize=17;fontStyle=1;fillColor=#008cff;whiteSpace=wrap;" parent="dAHod_WL6a9GCV79f9y0-70" vertex="1">
                    <mxGeometry x="626.47" y="85" width="105.94" height="30.6" as="geometry"/>
                </mxCell>
                <mxCell id="4MM3qSH1iIxZpQqLXLsO-112" value="" style="line;strokeWidth=4;html=1;perimeter=backbonePerimeter;points=[];outlineConnect=0;fontSize=21;" parent="dAHod_WL6a9GCV79f9y0-70" vertex="1">
                    <mxGeometry y="60" width="787.81" height="10" as="geometry"/>
                </mxCell>
                <mxCell id="dAHod_WL6a9GCV79f9y0-4" value="Schedulia" style="strokeWidth=1;shadow=0;dashed=0;align=center;html=1;shape=mxgraph.mockup.containers.anchor;fontSize=17;fontColor=#666666;align=left;" parent="dAHod_WL6a9GCV79f9y0-3" vertex="1">
                    <mxGeometry x="60" y="12" width="110" height="26" as="geometry"/>
                </mxCell>
                <mxCell id="dAHod_WL6a9GCV79f9y0-5" value="https://www.schedulia.xyz" style="strokeWidth=1;shadow=0;dashed=0;align=center;html=1;shape=mxgraph.mockup.containers.anchor;rSize=0;fontSize=17;fontColor=#666666;align=left;" parent="dAHod_WL6a9GCV79f9y0-3" vertex="1">
                    <mxGeometry x="130" y="60" width="250" height="26" as="geometry"/>
                </mxCell>
                <mxCell id="4MM3qSH1iIxZpQqLXLsO-3" value="Landing Page" style="text;html=1;align=center;verticalAlign=middle;resizable=0;points=[];autosize=1;strokeColor=none;fillColor=none;fontSize=32;" parent="1" vertex="1">
                    <mxGeometry x="-1610" y="10" width="220" height="50" as="geometry"/>
                </mxCell>
                <mxCell id="4MM3qSH1iIxZpQqLXLsO-13" value="" style="strokeWidth=1;shadow=0;dashed=0;align=center;html=1;shape=mxgraph.mockup.containers.browserWindow;rSize=0;strokeColor=#666666;strokeColor2=#008cff;strokeColor3=#c4c4c4;mainText=,;recursiveResize=0;" parent="1" vertex="1">
                    <mxGeometry x="-1600" y="910" width="800" height="750" as="geometry"/>
                </mxCell>
                <mxCell id="4MM3qSH1iIxZpQqLXLsO-76" value="Schedulia" style="strokeWidth=1;shadow=0;dashed=0;align=center;html=1;shape=mxgraph.mockup.containers.anchor;fontSize=17;fontColor=#666666;align=left;" parent="4MM3qSH1iIxZpQqLXLsO-13" vertex="1">
                    <mxGeometry x="60" y="12" width="110" height="26" as="geometry"/>
                </mxCell>
                <mxCell id="4MM3qSH1iIxZpQqLXLsO-77" value="https://www.schedulia.xyz" style="strokeWidth=1;shadow=0;dashed=0;align=center;html=1;shape=mxgraph.mockup.containers.anchor;rSize=0;fontSize=17;fontColor=#666666;align=left;" parent="4MM3qSH1iIxZpQqLXLsO-13" vertex="1">
                    <mxGeometry x="130" y="60" width="250" height="26" as="geometry"/>
                </mxCell>
                <mxCell id="4MM3qSH1iIxZpQqLXLsO-88" value="&lt;font style=&quot;font-size: 32px;&quot;&gt;Schedulia&lt;/font&gt;" style="text;html=1;strokeColor=none;fillColor=none;align=center;verticalAlign=middle;whiteSpace=wrap;rounded=0;" parent="4MM3qSH1iIxZpQqLXLsO-13" vertex="1">
                    <mxGeometry y="120" width="219.03" height="60" as="geometry"/>
                </mxCell>
                <mxCell id="4MM3qSH1iIxZpQqLXLsO-89" value="" style="verticalLabelPosition=bottom;shadow=0;dashed=0;align=center;html=1;verticalAlign=top;strokeWidth=1;shape=mxgraph.mockup.containers.userMale;strokeColor=#666666;strokeColor2=#008cff;fontSize=32;" parent="4MM3qSH1iIxZpQqLXLsO-13" vertex="1">
                    <mxGeometry x="732.41" y="135.5" width="33" height="29" as="geometry"/>
                </mxCell>
                <mxCell id="4MM3qSH1iIxZpQqLXLsO-92" value="&lt;font style=&quot;font-size: 21px&quot;&gt;Media Types&lt;/font&gt;" style="text;html=1;align=center;verticalAlign=middle;resizable=0;points=[];autosize=1;strokeColor=none;fillColor=none;fontSize=32;" parent="4MM3qSH1iIxZpQqLXLsO-13" vertex="1">
                    <mxGeometry x="30" y="210" width="130" height="50" as="geometry"/>
                </mxCell>
                <mxCell id="4MM3qSH1iIxZpQqLXLsO-107" value="" style="strokeWidth=1;shadow=0;dashed=0;align=center;html=1;shape=mxgraph.mockup.forms.rrect;rSize=0;strokeColor=#999999;fillColor=#ffffff;recursiveResize=0;fontSize=21;" parent="4MM3qSH1iIxZpQqLXLsO-13" vertex="1">
                    <mxGeometry x="30" y="270" width="150" height="120" as="geometry"/>
                </mxCell>
                <mxCell id="4MM3qSH1iIxZpQqLXLsO-108" value="Action" style="strokeWidth=1;shadow=0;dashed=0;align=center;html=1;shape=mxgraph.mockup.forms.rrect;rSize=0;fillColor=#eeeeee;strokeColor=#999999;gradientColor=#cccccc;align=left;spacingLeft=4;fontSize=17;fontColor=#666666;labelPosition=right;" parent="4MM3qSH1iIxZpQqLXLsO-107" vertex="1">
                    <mxGeometry x="8" y="7.5" width="15" height="15" as="geometry"/>
                </mxCell>
                <mxCell id="4MM3qSH1iIxZpQqLXLsO-109" value="Movies" style="strokeWidth=1;shadow=0;dashed=0;align=center;html=1;shape=mxgraph.mockup.forms.rrect;rSize=0;fillColor=#eeeeee;strokeColor=#999999;gradientColor=#cccccc;align=left;spacingLeft=4;fontSize=17;fontColor=#666666;labelPosition=right;" parent="4MM3qSH1iIxZpQqLXLsO-107" vertex="1">
                    <mxGeometry x="8" y="37.5" width="15" height="15" as="geometry"/>
                </mxCell>
                <mxCell id="4MM3qSH1iIxZpQqLXLsO-110" value="TV Shows" style="strokeWidth=1;shadow=0;dashed=0;align=center;html=1;shape=mxgraph.mockup.forms.checkbox;rSize=0;resizable=0;fillColor=#aaaaaa;strokeColor=#444444;gradientColor=#666666;align=left;spacingLeft=4;fontSize=17;fontColor=#008cff;labelPosition=right;" parent="4MM3qSH1iIxZpQqLXLsO-107" vertex="1">
                    <mxGeometry x="8" y="67.5" width="15" height="15" as="geometry"/>
                </mxCell>
                <mxCell id="4MM3qSH1iIxZpQqLXLsO-113" value="" style="line;strokeWidth=4;html=1;perimeter=backbonePerimeter;points=[];outlineConnect=0;fontSize=21;" parent="4MM3qSH1iIxZpQqLXLsO-13" vertex="1">
                    <mxGeometry y="180" width="800" height="10" as="geometry"/>
                </mxCell>
                <mxCell id="2" value="&lt;font style=&quot;font-size: 21px;&quot;&gt;Interests&lt;/font&gt;" style="text;html=1;align=center;verticalAlign=middle;resizable=0;points=[];autosize=1;strokeColor=none;fillColor=none;fontSize=32;" vertex="1" parent="4MM3qSH1iIxZpQqLXLsO-13">
                    <mxGeometry x="30" y="400" width="100" height="50" as="geometry"/>
                </mxCell>
                <mxCell id="3" value="" style="strokeWidth=1;shadow=0;dashed=0;align=center;html=1;shape=mxgraph.mockup.forms.rrect;rSize=0;strokeColor=#999999;fillColor=#ffffff;recursiveResize=0;fontSize=21;" vertex="1" parent="4MM3qSH1iIxZpQqLXLsO-13">
                    <mxGeometry x="30" y="460" width="150" height="120" as="geometry"/>
                </mxCell>
                <mxCell id="4" value="Action" style="strokeWidth=1;shadow=0;dashed=0;align=center;html=1;shape=mxgraph.mockup.forms.rrect;rSize=0;fillColor=#eeeeee;strokeColor=#999999;gradientColor=#cccccc;align=left;spacingLeft=4;fontSize=17;fontColor=#666666;labelPosition=right;" vertex="1" parent="3">
                    <mxGeometry x="8" y="7.5" width="15" height="15" as="geometry"/>
                </mxCell>
                <mxCell id="5" value="Drama" style="strokeWidth=1;shadow=0;dashed=0;align=center;html=1;shape=mxgraph.mockup.forms.rrect;rSize=0;fillColor=#eeeeee;strokeColor=#999999;gradientColor=#cccccc;align=left;spacingLeft=4;fontSize=17;fontColor=#666666;labelPosition=right;" vertex="1" parent="3">
                    <mxGeometry x="8" y="37.5" width="15" height="15" as="geometry"/>
                </mxCell>
                <mxCell id="6" value="Comedy" style="strokeWidth=1;shadow=0;dashed=0;align=center;html=1;shape=mxgraph.mockup.forms.checkbox;rSize=0;resizable=0;fillColor=#aaaaaa;strokeColor=#444444;gradientColor=#666666;align=left;spacingLeft=4;fontSize=17;fontColor=#008cff;labelPosition=right;" vertex="1" parent="3">
                    <mxGeometry x="8" y="67.5" width="15" height="15" as="geometry"/>
                </mxCell>
                <mxCell id="7" value="Adventure" style="strokeWidth=1;shadow=0;dashed=0;align=center;html=1;shape=mxgraph.mockup.forms.rrect;rSize=0;fillColor=#eeeeee;strokeColor=#999999;gradientColor=#cccccc;align=left;spacingLeft=4;fontSize=17;fontColor=#666666;labelPosition=right;" vertex="1" parent="3">
                    <mxGeometry x="8" y="97.5" width="15" height="15" as="geometry"/>
                </mxCell>
                <mxCell id="4MM3qSH1iIxZpQqLXLsO-78" value="Account Page" style="text;html=1;align=center;verticalAlign=middle;resizable=0;points=[];autosize=1;strokeColor=none;fillColor=none;fontSize=32;" parent="1" vertex="1">
                    <mxGeometry x="-1600" y="850" width="220" height="50" as="geometry"/>
                </mxCell>
            </root>
        </mxGraphModel>
    </diagram>
</mxfile>